<svg width="172" height="32" viewBox="0 0 172 32" fill="none" xmlns="http://www.w3.org/2000/svg">
<g clip-path="url(#clip0_1_3223)">
<path d="M22.0436 30.1323H21.7955L16.2079 13.5435L10.6007 30.1323H10.3634L1.37788 3.51755C1.15005 3.05753 0.690746 2.82752 0 2.82752V2.71216H3.70042V2.82752C3.44648 2.82462 3.19305 2.85092 2.94511 2.90589C2.84575 2.91897 2.75534 2.97003 2.69284 3.04836C2.63033 3.1267 2.60058 3.22621 2.60988 3.32599C2.60988 3.40291 5.40334 11.7194 10.9903 28.2755L16.0795 13.18L12.8274 3.51755C12.7676 3.38803 12.6813 3.2725 12.5741 3.17839C12.4668 3.08429 12.3411 3.0137 12.2049 2.97119C11.9687 2.88497 11.7204 2.83648 11.4692 2.82752V2.71216H15.1696V2.82752C14.9123 2.82456 14.6556 2.85381 14.4056 2.91459C14.3036 2.92973 14.2112 2.9832 14.1473 3.06409C14.0834 3.14499 14.0527 3.24722 14.0616 3.34994C14.0718 3.46312 14.9584 6.12235 16.7216 11.3276C18.5195 5.99611 19.4186 3.30495 19.4186 3.25416C19.4186 3.06261 19.2944 2.94506 19.0463 2.89935C18.7962 2.85511 18.5428 2.83254 18.2888 2.83188V2.7165H20.9487V2.83188C20.7092 2.84175 20.4716 2.88049 20.2413 2.94725C20.113 2.97148 19.9924 3.02572 19.8891 3.10555C19.7858 3.18537 19.7029 3.28852 19.6471 3.40653L16.8195 11.702L22.4267 28.2712C28.0253 11.6918 30.8318 3.35719 30.8463 3.26722C30.8463 3.06478 30.7222 2.94071 30.4719 2.895C30.2225 2.85066 29.9698 2.82809 29.7166 2.82752V2.71216H32.3765V2.82752C32.1334 2.83772 31.8923 2.87645 31.6582 2.94289C31.5304 2.96469 31.41 3.01814 31.3081 3.09836C31.2062 3.17858 31.126 3.28302 31.0748 3.40217L22.0436 30.1323Z" fill="white"/>
<path d="M45.3802 30.1323H33.9176V30.0169C34.103 30.017 34.2883 30.0075 34.4727 29.9886C34.6453 29.9773 34.8112 29.9177 34.9515 29.8167C35.0216 29.7535 35.0755 29.6745 35.1088 29.5863C35.1421 29.4981 35.1539 29.4032 35.1431 29.3095V3.51755C35.1622 3.38486 35.1304 3.24986 35.0541 3.13965C34.9778 3.02944 34.8626 2.95215 34.7317 2.92329C34.4648 2.86072 34.1917 2.82859 33.9176 2.82752V2.71216H45.3802L46.2509 7.36381H46.0028C45.8929 6.58487 45.6768 5.82466 45.3606 5.10437C45.0674 4.4483 44.5806 3.89763 43.9654 3.52625C43.3341 3.13589 42.438 2.94144 41.2771 2.94289H36.3207V16.2992H41.658C41.755 16.3044 41.8514 16.282 41.9362 16.2347C42.0209 16.1873 42.0905 16.1168 42.1369 16.0315C42.3128 15.655 42.3921 15.2405 42.3676 14.8256H42.4808V18.0145H42.3676C42.3676 17.0335 42.1311 16.5423 41.658 16.5408H36.3207V29.8972H41.2771C42.438 29.8972 43.3341 29.6991 43.9654 29.303C44.5787 28.9293 45.065 28.3793 45.3606 27.7248C45.6777 27.0087 45.8938 26.2519 46.0028 25.4763H46.2509L45.3802 30.1323Z" fill="white"/>
<path d="M56.5751 30.0954H49.9361V29.9865H50.0122C50.2771 29.9865 50.541 29.9543 50.7981 29.8908C51.0527 29.8276 51.179 29.6296 51.179 29.2965V3.49804C51.197 3.36321 51.1639 3.22653 51.0861 3.11493C51.0083 3.00333 50.8916 2.9249 50.7589 2.89508C50.4899 2.82691 50.2136 2.79183 49.9361 2.7906V2.67524H56.5751C58.4256 2.65268 60.2397 3.18986 61.7796 4.21635C63.3236 5.24231 64.552 6.76601 65.4648 8.78746C66.3775 10.8089 66.8332 13.3412 66.8318 16.3842C66.8318 19.4084 66.3761 21.937 65.4648 23.9701C64.5535 26.0031 63.3251 27.5305 61.7796 28.5521C60.2388 29.5769 58.4255 30.1146 56.5751 30.0954ZM56.5751 29.8646C58.2485 29.8728 59.8738 29.3056 61.1788 28.2582C62.5473 27.1873 63.6356 25.6433 64.4439 23.6262C65.2522 21.6091 65.6542 19.1987 65.6498 16.3951C65.6498 13.5741 65.2478 11.1601 64.4439 9.15315C63.64 7.14621 62.5516 5.6022 61.1788 4.5211C59.8762 3.46835 58.2499 2.89782 56.5751 2.90597H52.374V29.8646H56.5751ZM58.3752 18.2497L58.1576 17.8861C58.0657 17.7048 57.9532 17.5346 57.8223 17.379C57.666 17.2441 57.496 17.1259 57.3152 17.0264L56.932 16.8087L57.3152 16.591C57.496 16.4915 57.666 16.3733 57.8223 16.2384C57.9537 16.0832 58.0663 15.9129 58.1576 15.7312L58.3752 15.3481L58.5929 15.7312C58.6938 15.9118 58.8126 16.0817 58.9477 16.2384C59.104 16.3733 59.274 16.4915 59.4549 16.591L59.838 16.8087L59.4549 17.0264C59.274 17.1259 59.104 17.2441 58.9477 17.379C58.8132 17.5361 58.6943 17.7059 58.5929 17.8861L58.3752 18.2497Z" fill="white"/>
<path d="M78.277 30.1128C77.101 30.117 75.934 29.9068 74.8334 29.4925C73.7745 29.1031 72.828 28.4586 72.0777 27.6161C71.3134 26.7259 70.8455 25.6197 70.739 24.4512C70.713 24.2097 70.6999 23.967 70.6998 23.7242C70.682 22.6553 70.9673 21.6032 71.5226 20.6898C72.0769 19.8 72.834 19.054 73.732 18.5131C74.6896 17.9335 75.7541 17.553 76.8621 17.3943V17.6119C75.9499 17.7931 75.0777 18.1366 74.2871 18.6263C73.5486 19.0908 72.9374 19.7319 72.5087 20.4917C72.0464 21.366 71.8212 22.3461 71.8557 23.3345C71.8568 23.7058 71.8822 24.0767 71.9319 24.4446C72.1858 26.2687 72.8904 27.627 74.0455 28.5195C75.2006 29.4119 76.6133 29.8581 78.2835 29.8581C79.7768 29.8581 81.0588 29.5331 82.1298 28.883C83.6869 27.9383 84.4647 26.2542 84.4632 23.8308C84.4762 22.7854 84.1543 21.7633 83.5446 20.914C82.8891 20.009 82.0873 19.2196 81.172 18.5784C80.1776 17.8686 79.1288 17.2383 78.0354 16.6934C77.1531 16.2464 76.2918 15.7777 75.4516 15.2872C74.6329 14.8147 73.8667 14.2565 73.1661 13.622C72.4928 13.017 71.9377 12.2922 71.5292 11.4845C71.1036 10.5985 70.894 9.62428 70.9175 8.64167C70.883 7.45889 71.2686 6.30214 72.0059 5.37659C72.7361 4.48194 73.6812 3.78696 74.7529 3.35659C75.8255 2.9062 76.9766 2.67243 78.1399 2.66876C79.3333 2.66464 80.5161 2.89234 81.6226 3.33919C82.698 3.76043 83.6395 4.46436 84.3478 5.37659C85.056 6.28791 85.4101 7.44883 85.4101 8.85934H84.2238C84.2238 6.98592 83.6658 5.52244 82.5499 4.46891C81.4339 3.41537 79.964 2.88933 78.1399 2.89079C76.3651 2.89079 74.914 3.41319 73.7864 4.45801C72.6589 5.50284 72.0959 6.90175 72.0973 8.65473C72.0787 9.48102 72.2625 10.2993 72.6328 11.0382C72.9997 11.7321 73.4928 12.3515 74.0868 12.8645C74.7287 13.423 75.4243 13.9166 76.1634 14.3381C76.934 14.7851 77.7502 15.2284 78.6122 15.6681C79.4742 16.1078 80.3195 16.5896 81.1481 17.1135C81.9581 17.6226 82.7144 18.2126 83.4054 18.8744C84.0654 19.5065 84.613 20.2462 85.0248 21.062C85.4439 21.9263 85.6534 22.877 85.6365 23.8373C85.6365 26.0054 84.8776 27.6256 83.3597 28.698C82.0391 29.6427 80.3449 30.1143 78.277 30.1128Z" fill="white"/>
<path d="M106.337 30.1128H102.656V29.9996C102.835 29.9996 103.02 29.9996 103.211 29.9713C103.388 29.9571 103.557 29.8938 103.699 29.7885C103.77 29.7275 103.825 29.6504 103.86 29.5637C103.895 29.4769 103.908 29.3831 103.899 29.29V11.1318C103.422 12.5698 102.57 13.8546 101.431 14.854C100.229 15.9283 98.9425 16.9044 97.5845 17.773C96.1164 18.7097 94.7397 19.7825 93.4727 20.9771C92.307 22.0627 91.5558 23.5205 91.3482 25.0998V29.29C91.3393 29.3823 91.352 29.4753 91.3853 29.5618C91.4185 29.6483 91.4714 29.7259 91.5397 29.7885C91.6715 29.8932 91.8313 29.9568 91.999 29.9713C92.1775 29.9887 92.3494 29.9996 92.5149 29.9996H92.5911V30.1128H88.9167V29.9996C89.0952 29.9996 89.2803 29.9996 89.4718 29.9713C89.6483 29.9576 89.8174 29.8942 89.9594 29.7885C90.0305 29.7276 90.0861 29.6506 90.1213 29.5639C90.1565 29.4771 90.1704 29.3832 90.1619 29.29V4.91076C90.1619 4.57989 90.0487 4.38182 89.8267 4.31869C89.5289 4.2469 89.2229 4.2147 88.9167 4.22292V4.10755C89.4627 4.12634 89.9992 3.96157 90.4405 3.63956C90.7894 3.39977 91.0616 3.06411 91.2241 2.6731H91.3395V23.9505C91.806 22.5719 92.6326 21.3432 93.7339 20.3916C94.8974 19.3655 96.1341 18.4256 97.4343 17.5793C98.9376 16.6246 100.344 15.5252 101.633 14.2968C102.857 13.1445 103.651 11.6084 103.882 9.94333V4.91293C103.882 4.58207 103.764 4.384 103.529 4.32087C103.238 4.25118 102.938 4.21899 102.639 4.2251V4.10972C103.19 4.13824 103.735 3.97522 104.18 3.64826C104.531 3.40542 104.81 3.07125 104.985 2.6818H105.098V29.29C105.09 29.3822 105.103 29.4751 105.136 29.5615C105.17 29.6479 105.222 29.7256 105.29 29.7885C105.422 29.8925 105.582 29.956 105.749 29.9713C105.928 29.9887 106.1 29.9996 106.267 29.9996H106.344L106.337 30.1128Z" fill="white"/>
<path d="M138.137 12.9037C137.923 12.3997 137.675 11.911 137.395 11.4409C136.988 10.7452 136.518 10.0893 135.988 9.4819C135.921 9.39483 135.845 9.30776 135.771 9.22069C134.857 8.21002 133.794 7.34464 132.619 6.65435C130.597 5.48786 128.305 4.87378 125.971 4.87378C123.637 4.87378 121.345 5.48786 119.323 6.65435C117.344 7.81533 115.696 9.464 114.535 11.4431C113.528 13.1364 112.932 15.0418 112.793 17.0068C112.771 17.2463 112.763 17.4879 112.756 17.7317C113.176 17.7469 113.596 17.7469 114.014 17.7317C114.014 17.5989 114.014 17.4661 114.014 17.3333C114.014 17.2006 114.014 17.0874 114.014 16.9655C114.031 15.2145 114.424 13.4876 115.168 11.9024C115.91 10.3239 116.992 8.9288 118.335 7.81672C119.641 6.73302 121.171 5.95243 122.815 5.53117C123.702 5.31161 124.611 5.19978 125.525 5.19812C127.258 5.20216 128.969 5.59334 130.531 6.34308C132.187 7.13064 133.643 8.28257 134.791 9.71263C134.837 9.76923 134.878 9.82147 134.92 9.87807C135.007 9.98473 135.087 10.0957 135.163 10.2002C135.818 11.0924 136.357 12.0646 136.765 13.0931C136.822 13.2215 136.872 13.3499 136.918 13.4827C137.388 13.4218 137.854 13.3695 138.32 13.3195C138.261 13.1845 138.2 13.0452 138.137 12.9037ZM135.764 26.9501L135.62 27.1046C134.738 28.0481 133.725 28.8603 132.612 29.5164C130.591 30.6829 128.298 31.297 125.965 31.297C123.631 31.297 121.338 30.6829 119.317 29.5164C117.74 28.5943 116.372 27.355 115.299 25.877C115.109 25.6309 114.933 25.3744 114.772 25.1086C115.207 25.0846 115.667 25.0476 116.137 25.0063C116.291 25.274 116.459 25.5287 116.633 25.7747C116.807 26.0206 116.966 26.2339 117.145 26.4494C118.29 27.8815 119.745 29.0351 121.4 29.8233C122.963 30.5714 124.674 30.961 126.406 30.9639C127.32 30.9649 128.23 30.8538 129.116 30.6331C130.758 30.2109 132.285 29.4295 133.587 28.3454C134.181 27.8586 134.719 27.3082 135.192 26.7041C135.207 26.7041 135.216 26.678 135.226 26.6693C135.24 26.6531 135.252 26.6356 135.261 26.617C135.27 26.6129 135.278 26.6061 135.283 26.5974C135.318 26.5561 135.355 26.5039 135.394 26.4538L135.492 26.3254C135.579 26.2122 135.662 26.1077 135.742 25.988C135.758 25.9665 135.772 25.9439 135.784 25.9205L135.825 25.8639C136.171 25.3552 136.477 24.8203 136.739 24.264C137.148 23.4126 137.451 22.5141 137.64 21.5888C137.675 21.4473 137.701 21.2971 137.728 21.1535L138.57 21.0359L138.862 21.012C138.831 21.1752 138.796 21.3276 138.751 21.4865C138.457 22.6342 138.001 23.7339 137.395 24.7516C137.077 25.2895 136.722 25.8039 136.33 26.2905L136.223 26.4277L135.764 26.9501Z" fill="white"/>
<path d="M134.789 24.9604C134.136 24.1505 133.604 23.2501 133.209 22.2874C133.159 22.1699 133.106 22.0415 133.061 21.9174L131.946 22.1351C131.996 22.2635 132.049 22.3919 132.105 22.5138C132.265 22.8702 132.446 23.2169 132.647 23.5521C133.222 24.5388 133.95 25.4279 134.804 26.1859L135.346 25.5917C135.157 25.3914 134.968 25.1803 134.789 24.9604ZM151.389 21.9326C151.352 22.0545 151.31 22.1721 151.265 22.2896C151.162 22.5864 151.043 22.8771 150.908 23.1603C150.293 24.4602 149.401 25.6102 148.296 26.5299C147.224 27.4194 145.968 28.0603 144.619 28.4062C143.895 28.5883 143.15 28.6804 142.403 28.6805C140.98 28.6745 139.576 28.3534 138.291 27.7401C137.709 27.4682 137.158 27.1355 136.646 26.7475C136.559 26.876 136.4 27.1002 136.267 27.2895C136.369 27.3614 136.472 27.4289 136.578 27.4898C138.241 28.4482 140.126 28.9526 142.045 28.9526C143.964 28.9526 145.849 28.4482 147.512 27.4898C149.137 26.5348 150.491 25.1791 151.443 23.5521C151.638 23.224 151.816 22.8862 151.976 22.5399C152.026 22.4267 152.072 22.3223 152.124 22.196C151.889 22.1068 151.643 22.0197 151.389 21.9326ZM134.354 10.396C133.696 11.0606 133.122 11.8042 132.647 12.6097C132.394 13.0351 132.171 13.4781 131.981 13.9354C131.92 14.0834 131.863 14.2314 131.807 14.3859C132.109 14.3185 132.406 14.2532 132.702 14.1966C132.744 14.049 132.794 13.9037 132.852 13.7612C132.946 13.5005 133.054 13.2448 133.174 12.995C133.557 12.187 134.048 11.435 134.634 10.7595L134.354 10.396ZM152.14 14.0072C151.945 13.5235 151.712 13.0561 151.443 12.6097C150.49 10.9843 149.136 9.62959 147.512 8.67424C145.849 7.71589 143.964 7.21143 142.045 7.21143C140.126 7.21143 138.241 7.71589 136.578 8.67424C136.513 8.71342 136.445 8.75478 136.385 8.79614L136.585 9.04645C137.461 8.45511 138.433 8.0192 139.458 7.75784C141.586 7.23671 143.829 7.47698 145.799 8.43697C147.16 9.0825 148.357 10.0302 149.297 11.2079C149.879 11.9218 150.362 12.7112 150.733 13.5544C150.805 13.7025 150.871 13.857 150.927 14.0094C151.419 14.1487 151.878 14.3076 152.314 14.4752C152.257 14.3141 152.201 14.1705 152.14 14.0181V14.0072ZM135.76 9.21842C135.467 9.42454 135.186 9.64692 134.917 9.8845H134.907L135.157 10.2023C135.35 10.0046 135.555 9.81854 135.771 9.64505C135.838 9.59281 135.899 9.53622 135.967 9.49051L135.76 9.21842ZM136.226 26.4145C136.061 26.2863 135.904 26.1482 135.755 26.0009C135.695 26.088 135.601 26.2186 135.509 26.3492L135.412 26.4776C135.372 26.5277 135.335 26.5799 135.301 26.6213C135.443 26.7343 135.59 26.8404 135.742 26.9391L135.764 26.9543L136.226 26.4145Z" fill="white"/>
<path d="M165.629 30.1323H161.957V30.0169H162.033C162.294 30.0181 162.554 29.9867 162.808 29.9233C163.056 29.858 163.18 29.6621 163.18 29.3291L163.199 2.94289H160.54C159.379 2.94289 158.485 3.13734 157.86 3.52625C157.249 3.90058 156.766 4.45065 156.473 5.10437C156.158 5.8259 155.939 6.58546 155.82 7.36381H155.59L156.46 2.71216H171.136L172.007 7.36381H171.756C171.638 6.58546 171.418 5.8259 171.103 5.10437C170.811 4.45065 170.327 3.90058 169.717 3.52625C169.091 3.13589 168.198 2.94144 167.037 2.94289H164.366V29.3334C164.366 29.6665 164.501 29.8624 164.769 29.9277C165.026 29.9891 165.289 30.0205 165.553 30.0213H165.629V30.1323Z" fill="white"/>
<path d="M155.463 15.8596V15.8117C155.463 15.8117 155.463 15.7964 155.463 15.7921L153.79 14.7494C153.585 14.6558 153.383 14.5448 153.178 14.4512C152.849 14.2988 152.507 14.1552 152.144 14.0159C151.709 13.8526 151.234 13.6981 150.738 13.5544C148.896 13.0657 147.006 12.781 145.102 12.7055H145.037C142.003 12.6511 141.487 12.6511 141.389 12.6598C141.232 12.6598 141.073 12.6815 140.914 12.6815C140.163 12.7055 139.391 12.773 138.576 12.8383C138.435 12.86 138.291 12.8753 138.141 12.9014C137.686 12.9623 137.225 13.0276 136.765 13.0995C135.459 13.2997 134.127 13.5348 132.847 13.7699C132.556 13.8265 132.264 13.8831 131.977 13.944C130.779 14.1748 129.635 14.4186 128.572 14.6537H128.559C128.579 14.6384 128.585 14.6341 128.579 14.6232C127.987 14.7821 127.449 14.9214 127.02 15.0172C126.927 15.0389 126.835 15.0585 126.748 15.0738C126.718 15.0738 126.687 15.089 126.657 15.0934C126.626 15.0977 126.55 15.1151 126.498 15.1304C125.501 15.3611 124.663 15.5657 123.955 15.7181C121.779 16.234 117.16 16.8064 114.032 16.9719C113.596 16.9915 113.176 17.0023 112.804 17.0023C112.343 17.0159 111.881 16.997 111.422 16.9457C110.479 16.9218 109.544 16.759 108.649 16.4625C108.087 16.2666 106.777 15.6702 106.82 14.88C106.82 14.88 106.755 16.0816 108.248 16.9C108.399 16.9872 108.558 17.0601 108.723 17.1177C109.09 17.2688 109.47 17.384 109.859 17.4616C110.021 17.5035 110.187 17.534 110.353 17.553C110.492 17.5726 110.651 17.5726 110.788 17.5944C111.455 17.6597 112.114 17.7054 112.767 17.7207C113.187 17.7359 113.607 17.7359 114.025 17.7207C118.161 17.6597 122.218 16.7281 126.361 15.7007C126.544 15.6593 126.702 15.6136 126.881 15.5679C127.199 15.4765 127.534 15.409 127.858 15.3175L128.4 15.1782C128.677 15.1129 128.923 15.0455 129.197 14.9802C130.098 14.7625 130.967 14.5557 131.809 14.3772C132.112 14.3097 132.408 14.2444 132.704 14.1878C134.162 13.8853 135.557 13.6502 136.918 13.4717C137.388 13.4107 137.854 13.3585 138.32 13.3084C139.245 13.2148 140.161 13.1539 141.071 13.1191C141.236 13.1014 141.402 13.0941 141.567 13.0973C141.976 13.0733 142.405 13.0734 142.815 13.0734H143.311C144.996 13.1022 146.678 13.2316 148.348 13.4608C149.22 13.5759 150.083 13.7534 150.929 13.9919C151.421 14.1312 151.881 14.2901 152.316 14.4577C152.679 14.6014 153.026 14.7494 153.354 14.9083C155.603 15.927 157.433 17.6887 158.537 19.8974C157.967 18.2757 156.82 16.9261 155.463 15.8596Z" fill="white"/>
<path d="M155.463 24.0397V23.994C155.463 23.994 155.463 23.9788 155.463 23.9744L153.79 22.9318C153.585 22.8382 153.383 22.7271 153.178 22.6335C152.845 22.4812 152.497 22.3332 152.129 22.1982C151.894 22.1111 151.648 22.0241 151.393 21.9435C149.35 21.3234 147.236 20.9707 145.102 20.8943H145.037C142.003 20.8378 141.487 20.8378 141.389 20.8486C141.232 20.8486 141.073 20.8682 140.914 20.8682C140.261 20.89 139.58 20.9466 138.868 21.0032L138.576 21.0271L137.734 21.1447C136.169 21.3623 134.589 21.6366 133.065 21.9218L131.951 22.1394C130.764 22.3702 129.635 22.6096 128.581 22.8447H128.559C128.579 22.8295 128.585 22.8251 128.579 22.8142C127.987 22.9731 127.449 23.1102 127.02 23.2082C126.927 23.2278 126.835 23.2496 126.748 23.2648C126.718 23.2648 126.687 23.28 126.657 23.2844C126.626 23.2887 126.55 23.3062 126.498 23.3214C125.501 23.5391 124.663 23.7567 123.955 23.9091C122.227 24.3183 118.975 24.7798 116.148 25.0127C115.677 25.0541 115.222 25.0911 114.783 25.115C113.335 25.2086 112.108 25.2282 111.422 25.1368C110.451 25.104 109.491 24.9302 108.57 24.6209C108.022 24.4315 106.779 23.8286 106.829 23.0711C106.829 23.0711 106.764 24.2726 108.257 25.0911C108.408 25.1774 108.567 25.2502 108.731 25.3087C109.098 25.4591 109.479 25.5735 109.868 25.6505C110.03 25.6941 110.195 25.7254 110.362 25.7441C110.501 25.7637 110.66 25.7637 110.797 25.7833C112.299 25.9338 113.811 25.9651 115.318 25.8769C115.754 25.8507 116.208 25.8203 116.653 25.7746C119.894 25.4611 123.1 24.7101 126.369 23.9026C126.552 23.8612 126.711 23.8155 126.89 23.7698C127.207 23.6784 127.543 23.6109 127.867 23.5195L128.409 23.3802C128.685 23.3149 128.931 23.2474 129.206 23.1821C130.21 22.9368 131.182 22.7134 132.123 22.5116C132.495 22.4289 132.863 22.3571 133.226 22.294C134.75 21.9914 136.228 21.7563 137.66 21.5865C138.032 21.5474 138.4 21.5104 138.77 21.4799C139.552 21.4081 140.318 21.358 141.086 21.3275C141.251 21.3098 141.417 21.3026 141.583 21.3057C141.992 21.2796 142.421 21.2796 142.83 21.2796H143.326C145.011 21.3103 146.693 21.4404 148.363 21.6693C149.352 21.7982 150.328 22.01 151.282 22.3027C151.528 22.3745 151.763 22.4572 151.994 22.5443C152.479 22.7184 152.938 22.9122 153.369 23.1168C153.573 23.2023 153.771 23.3012 153.961 23.4128C154.327 23.6123 154.682 23.8302 155.026 24.0658C155.231 24.203 155.435 24.3619 155.614 24.5012C156.871 25.4441 157.876 26.6831 158.539 28.108C158.539 28.108 158.025 26.0358 155.463 24.0397Z" fill="white"/>
<path d="M135.264 26.6125C135.244 26.6474 135.213 26.68 135.194 26.7105C135.205 26.7105 135.205 26.7105 135.194 26.7105C135.222 26.6818 135.246 26.6488 135.264 26.6125Z" fill="white"/>
<path d="M136.226 26.4079L136.332 26.2708L136.219 26.4035L135.742 26.939L135.61 27.0979L135.753 26.9434" fill="white"/>
<path d="M135.264 26.6125C135.244 26.6474 135.213 26.68 135.194 26.7105V26.6996C135.221 26.6743 135.245 26.6449 135.264 26.6125Z" fill="white"/>
<path d="M153.713 7.86462L152.573 6.92428C152.563 6.91593 152.551 6.90969 152.538 6.90593C152.525 6.90217 152.512 6.90098 152.499 6.9024C152.486 6.90381 152.473 6.90782 152.461 6.91419C152.45 6.92057 152.44 6.92917 152.431 6.93952C152.422 6.94951 152.416 6.96119 152.412 6.97383C152.408 6.98648 152.406 6.99983 152.407 7.01307C152.409 7.0263 152.413 7.03916 152.419 7.05084C152.425 7.06252 152.434 7.07278 152.444 7.08101L153.583 8.02135C153.593 8.03118 153.605 8.0388 153.618 8.04377C153.631 8.04873 153.645 8.05091 153.659 8.05017C153.674 8.04943 153.687 8.0458 153.7 8.03949C153.712 8.03318 153.724 8.02433 153.733 8.0135C153.742 8.00267 153.748 7.9901 153.752 7.97657C153.756 7.96303 153.757 7.94882 153.756 7.93484C153.754 7.92086 153.749 7.90741 153.742 7.89532C153.735 7.88324 153.725 7.87279 153.713 7.86462ZM153.957 5.8011L152.505 5.55948C152.478 5.5568 152.451 5.56422 152.43 5.58032C152.408 5.59641 152.393 5.62002 152.388 5.64654C152.384 5.67323 152.391 5.70017 152.407 5.72197C152.423 5.74376 152.446 5.7588 152.473 5.76408L153.927 6.00571C153.954 6.00839 153.981 6.00096 154.002 5.98486C154.024 5.96877 154.039 5.94516 154.044 5.91863C154.047 5.90514 154.046 5.89129 154.043 5.87793C154.04 5.86457 154.034 5.85199 154.026 5.84097C154.018 5.82995 154.008 5.82072 153.996 5.81386C153.984 5.807 153.971 5.80266 153.957 5.8011ZM153.424 3.95089C153.419 3.93789 153.412 3.92591 153.403 3.91565C153.394 3.9054 153.383 3.89707 153.371 3.89118C153.358 3.88529 153.345 3.88196 153.331 3.88137C153.318 3.88079 153.304 3.88295 153.291 3.88775L151.911 4.40147C151.885 4.4107 151.864 4.42977 151.853 4.45446C151.841 4.47916 151.84 4.50746 151.849 4.53315C151.858 4.55884 151.877 4.57982 151.902 4.59145C151.927 4.60309 151.955 4.60442 151.981 4.59519L153.361 4.08366C153.387 4.07431 153.408 4.05512 153.42 4.03025C153.431 4.00539 153.433 3.97687 153.424 3.95089ZM147.029 2.34229L145.89 1.40412C145.869 1.38919 145.843 1.38274 145.818 1.38605C145.792 1.38937 145.769 1.40222 145.752 1.42202C145.736 1.44182 145.727 1.46712 145.729 1.49286C145.73 1.5186 145.741 1.54287 145.76 1.56084L146.9 2.499C146.91 2.50776 146.922 2.51441 146.935 2.51851C146.947 2.52261 146.961 2.52409 146.974 2.52287C146.987 2.52164 147 2.51775 147.012 2.5114C147.023 2.50505 147.033 2.49639 147.042 2.48594C147.051 2.47576 147.057 2.46392 147.061 2.4511C147.065 2.43828 147.067 2.42476 147.066 2.41135C147.064 2.39793 147.061 2.38489 147.054 2.37303C147.048 2.36116 147.039 2.35071 147.029 2.34229ZM148.38 2.14421L147.869 0.764166C147.858 0.740748 147.838 0.722276 147.814 0.712338C147.791 0.702401 147.764 0.701707 147.739 0.710385C147.715 0.719063 147.695 0.736495 147.682 0.759303C147.67 0.782111 147.667 0.808671 147.673 0.833822L148.187 2.21385C148.191 2.22685 148.198 2.23883 148.207 2.24909C148.216 2.25934 148.227 2.26767 148.24 2.27356C148.252 2.27945 148.266 2.28279 148.279 2.28338C148.293 2.28397 148.307 2.28179 148.319 2.27699C148.343 2.26728 148.362 2.24931 148.373 2.22646C148.385 2.20362 148.387 2.17747 148.38 2.15291V2.14421ZM149.782 0.942658C149.755 0.940379 149.728 0.947915 149.706 0.963902C149.684 0.979888 149.669 1.00325 149.662 1.02972L149.421 2.4816C149.418 2.50877 149.425 2.536 149.442 2.55809C149.458 2.58017 149.481 2.59557 149.508 2.60132C149.535 2.6036 149.562 2.59605 149.584 2.58006C149.606 2.56407 149.621 2.54071 149.628 2.51424L149.867 1.06237C149.868 1.03695 149.86 1.01205 149.844 0.991841C149.829 0.971633 149.807 0.957336 149.782 0.95136V0.942658ZM151.876 2.11373C151.866 2.10492 151.854 2.09824 151.841 2.09411C151.829 2.08998 151.815 2.08849 151.802 2.08971C151.788 2.09093 151.775 2.09485 151.763 2.10122C151.751 2.10759 151.741 2.11629 151.733 2.12679L150.794 3.26739C150.786 3.27739 150.779 3.28906 150.775 3.30171C150.771 3.31435 150.769 3.3277 150.77 3.34094C150.772 3.35418 150.776 3.36703 150.782 3.37871C150.788 3.39039 150.797 3.40066 150.807 3.40888C150.818 3.4177 150.829 3.42437 150.842 3.42849C150.855 3.43262 150.869 3.43412 150.882 3.4329C150.895 3.43169 150.908 3.42777 150.92 3.4214C150.932 3.41503 150.943 3.40633 150.951 3.39582L151.889 2.25739C151.904 2.23752 151.91 2.21301 151.908 2.18852C151.906 2.16403 151.894 2.14127 151.876 2.12461V2.11373ZM150.135 4.21209L148.633 2.97354L146.615 3.32835L146.574 8.07577C146.567 8.06881 146.56 8.06292 146.552 8.05835L146.585 8.22379L147.031 8.45234L151.685 7.50982L151.648 5.46153L150.135 4.21209ZM150.178 4.42977L151.454 5.47677L150.074 5.92517L150.178 4.42977ZM149.928 5.96435L148.459 4.74974L150.048 4.31439L149.928 5.96435ZM149.928 4.21209L148.478 4.59954L148.657 3.16509L149.928 4.21209ZM148.526 3.12373L148.339 4.64744L146.844 3.43065L148.526 3.12373ZM146.757 3.5286L148.302 4.80416L146.722 8.08447L146.757 3.5286ZM148.402 4.88687L149.81 6.04707L146.844 8.20637L148.402 4.88687ZM146.996 8.31303L149.917 6.13631L151.463 7.40969L146.996 8.31303ZM151.556 7.29868L150.067 6.06883L151.526 5.59431L151.556 7.29868Z" fill="white"/>
</g>
<defs>
<clipPath id="clip0_1_3223">
<rect width="172" height="30.5938" fill="white" transform="translate(0 0.703125)"/>
</clipPath>
</defs>
</svg>
